<?xml version="1.0" encoding="UTF-8"?> <svg xmlns="http://www.w3.org/2000/svg" id="Layer_1" data-name="Layer 1" viewBox="0 0 1885.41 960.49"><defs><style>.cls-1,.cls-5{fill:#0f9;}.cls-1{opacity:0.35;}.cls-2,.cls-4{fill:#f09;}.cls-2{opacity:0.3;}.cls-3{fill:#0cf;}</style></defs><path d="M241.41,824.21c-.21,46.88-31.81,84.55-77.84,92.29-16.94,2.72-33.68,1.89-49.79-4.81-29.09-12.14-44.36-34.32-44.57-65.51-.21-39.76,17.37-69.69,54-86.85,21.55-10,44.36-11.93,67.16-5C222.79,764.15,241.62,789.89,241.41,824.21ZM147.46,880.3c13.18.21,24.69-4.4,33.48-14.23,14-15.91,18-34.74,13.81-55-2.3-11.51-10-19.26-21.55-21.77-13.18-2.93-25.74-1.25-36.83,6.91-18.41,14-24.06,33.48-22,55.46C116.71,870.46,128.63,880.09,147.46,880.3Z" transform="translate(-69.21 -25.8)"></path><path d="M291,916.29H246.22c.63-5.44,1.05-10.67,1.67-15.9,4.4-36.21,8.58-72.2,13.39-108.41,2.93-21.76,13.6-33.69,35.36-37.67,28.25-5,56.29-3.56,83.07,7.74,17,7.33,29.92,18.84,34.94,37.67,2.93,10.89.63,21.77-.63,32.65-2.93,25.74-6.07,51.48-9.21,77.23-.2,2.09-.62,4.18-1,6.48H358.58c.83-8.37,1.88-16.74,2.72-24.9,2.51-21.14,5.23-42.27,7.53-63.2a68.49,68.49,0,0,0-.63-14.65c-1.88-12.35-10.46-18.21-21.76-19.88a123.54,123.54,0,0,0-24.9-.84c-10.46.84-15.48,7.11-17,18.62-4.18,34.33-8.37,68.86-12.55,103.18A5.55,5.55,0,0,0,291,916.29Z" transform="translate(-69.21 -25.8)"></path><path d="M1236.76,916.29h-45.2c2.3-18.2,4.6-36.2,6.69-54.2,1.47-12.35,3.14-24.49,4-36.83,1.67-27.21-10.46-36-36.62-33.7-12.55,1.05-17.57,7.33-19,20.72-4.19,34.53-8.58,69.06-12.77,104h-45.4c1-9,2.3-18,3.34-26.78,2.52-21.35,5.24-42.49,7.12-63.83a52.5,52.5,0,0,0-1.67-18c-2.72-11.09-11.72-15.07-22-16.12a72.74,72.74,0,0,0-16.52.84c-8.58,1.46-13.18,6.07-14.44,14.86-2.72,19-5,38.09-7.32,56.92-2.1,17.37-4.19,34.53-6.48,52.11h-45.2c1-8.79,1.88-17.37,2.93-25.95,4-33.27,8.37-66.34,12.13-99.62,2.51-21.55,15.9-35.15,39.76-38.08,25.32-3.35,50.42-2.31,74.06,9.2a5.08,5.08,0,0,0,4.6-.2,60.11,60.11,0,0,1,28.88-9.63c23.64-1.89,47.08-1.26,68.84,9.83,15.9,8.17,27.83,19.89,31.59,38.09a66,66,0,0,1,.63,20.3c-3.56,31.19-7.53,62.16-11.3,93.34C1237.38,914.2,1237,915,1236.76,916.29Z" transform="translate(-69.21 -25.8)"></path><path d="M1780.12,751.8h26.79c4.39,0,8.78.42,13,0,5.24-.63,7.12,1.67,8.37,6.49,7.74,29.09,15.69,58.18,23.65,87.06a18.51,18.51,0,0,0,1.25,2.09c1-1.88,2.1-3.35,2.93-5,16.32-28.68,32.43-57.14,48.55-86,1.88-3.35,4-5,8.15-4.81,11.93.42,24.06,0,36,.21,1.67,0,3.35.21,5.86.21-1,2.3-1.88,4-2.72,5.44Q1901.38,849.11,1851.05,941c-10.25,18.62-24.06,33.7-45,40.8-16.32,5.65-33,5.45-50.21,2.31,1.26-10.25,2.51-20.3,3.76-29.72,8-1.88,15.91-2.93,23-5.44,12.34-4.39,20.7-13.81,27-25.11,3.76-6.7,7.74-13.19,11.08-20.09a13.65,13.65,0,0,0,1-8.59c-11.3-39.34-22.81-78.47-34.31-117.82C1785.14,769.17,1782.64,760.8,1780.12,751.8Z" transform="translate(-69.21 -25.8)"></path><path d="M1261.65,843.67c.21-48.76,34.31-86.64,83.49-92.5,15.27-1.88,29.92-.42,44.14,5.23,29.08,11.72,44.36,33.91,44.78,65.09.41,40-17,70.11-53.78,87.48-21.54,10-44.35,11.93-67.16,5C1280.28,904.15,1261.44,878.2,1261.65,843.67Zm78.46,36.63c17.16,0,30.13-7.54,39.12-21.77,7.12-11.3,10-24.07,9.63-37.25-.42-16.95-8.79-28.67-22.59-32a44.81,44.81,0,0,0-33.9,4.6c-20.5,11.51-28.25,38.51-25.32,58.39C1310,870.88,1321.28,880.3,1340.11,880.3Z" transform="translate(-69.21 -25.8)"></path><path d="M1596,916.29h-45.19c1.88-15.07,3.76-29.72,5.43-44.37,1.89-16.53,4.19-32.85,4.82-49.39.84-18.41-7.54-27.62-26-29.5a120.33,120.33,0,0,0-23,0c-7.53.62-12.77,5.23-14,12.76-2.09,12.35-3.56,24.91-5.23,37.25-2.93,23-5.65,46.05-8.37,69.07-.42,3.55-1.47,4.81-5.23,4.6-13.39-.21-26.78,0-40.8,0,1-10.05,2.09-19.67,3.35-29.3q5.65-46.45,11.3-92.92c2.92-23.65,14.22-36.62,36.82-40.39a154.43,154.43,0,0,1,25.94-2.09c20.93,0,41.43,2.51,60.26,12.14,21.76,11.09,35.36,30.55,31,59.22-4.4,29.72-7.32,59.44-10.88,89.16A11.92,11.92,0,0,1,1596,916.29Z" transform="translate(-69.21 -25.8)"></path><path d="M1664.42,852.88c.63,14.65,11.92,26.16,27.83,28.46,11.71,1.68,23.22.21,34.73-2.72,2.09-.63,4.4-1.25,6.9-2.09,4.39,8.16,8.79,16.11,13.18,24.28-7.32,5.86-15.68,9.62-24.47,12.55-21.77,6.91-43.32,6.49-64-3.76-23.86-12.14-36.2-32.44-37.46-58.6-1.67-37,11.31-67.39,44-87.06,22.39-13.61,47.07-17,72.39-10.05,18.83,5,32.43,16.33,36,36.42,3.35,19.25-4.82,34.32-19.46,46-11.09,9-24.27,13.6-38.5,14.44-15.06,1-30.34,1.25-45.4,1.88C1668.19,852.67,1666.52,852.88,1664.42,852.88Zm5.23-35.58c15.28,0,30.34.42,45.4-.21,7.12-.21,12.55-4.81,15.28-11.72,4-9.62-.21-18.41-9.84-20.71C1700.2,779.84,1673.62,797,1669.65,817.3Z" transform="translate(-69.21 -25.8)"></path><path d="M709.35,915.87c1.26-9.83,2.3-19.46,3.56-29.09,2.3-18.62,4.6-37.25,6.69-56.08a70.56,70.56,0,0,0,.21-9.42c-.21-15.7-6.69-24.9-22.18-27.62-9-1.68-18.41-1.26-27.4-.63-8.37.63-13,6.07-14,14.44-4,31.39-7.74,63-11.72,94.38-.63,4.61-1.25,9.21-1.88,14.23h-45.4q14.12-115.2,28.45-230.62h45.4c-3.14,22.18-6.07,43.95-9.2,66.55,2.3-.21,4.39-.21,6.27-.21,23.23-.84,46,1.46,67.17,12.14,22.17,11.3,35.57,31,31.17,59-4.6,29.51-7.53,59.44-11.09,89.16-.21,2.51-.63,4.18-3.76,4.18-13.18-.21-26.58,0-39.76,0A3.77,3.77,0,0,1,709.35,915.87Z" transform="translate(-69.21 -25.8)"></path><path d="M892.85,876.53c4.39,8.16,8.78,16.11,13.18,24.28a86.38,86.38,0,0,1-35.15,15.27c-18.21,3.56-36.2,2.1-52.94-6.48C792,896.41,780.07,874.23,780.07,846c-.21-35.15,13.18-63.83,44.36-82.24,22.59-13.4,47.07-17,72.39-10.05,18.62,5,32.22,16.12,35.78,36,3.35,19.46-4.6,34.74-19.46,46.67-11.09,8.79-24.06,13.39-38.08,14.44-15.27,1-30.55,1.25-46,1.88-1.67,0-3.35.21-5,.21-.63,11.51,8.16,22.81,21.13,26.79,13.81,4.18,27.62,2.09,41.22-1.26C888.24,878,890.33,877.16,892.85,876.53ZM828.61,817.3c15.48,0,30.76.42,46-.21,6.7-.21,11.93-4.81,14.65-11.09,4.81-10.46-.42-19.88-11.72-21.76C857.28,780.89,832.59,797.63,828.61,817.3Z" transform="translate(-69.21 -25.8)"></path><path d="M542.39,790.93c-2.3,18.42-4.4,36-6.7,53.58-.63,4.4-1,9-1.67,13.39-1.68,14.86,6.27,23.86,21.13,24.28a70.77,70.77,0,0,0,11.51-.84,103.21,103.21,0,0,0,11.5-2.51c1.47,9.84,2.93,19.67,4.61,29.72C566,915,549.08,919.43,531.3,917.13,504.1,913.57,489,897.25,489,869.62c0-16.32,2.3-32.64,4.4-48.76,4-33.27,8.16-66.34,12.34-99.62.21-2.09.63-4.18,1.05-6.48H552c-1.46,12.14-2.72,24.06-4.39,36.62h46.24c-1.68,13.39-3.14,26.16-4.82,39.14C573.14,790.93,558.08,790.93,542.39,790.93Z" transform="translate(-69.21 -25.8)"></path><path class="cls-1" d="M1184.39,325.35c-21.55,22.68-102.54,163.3-141.29,232.48l-83.65-31.66V492.41l81.76-139.66c50.56-87.41,120-142.23,143.18-157.82.85-.57,52.62,18.55,53.57,19.5C1238.71,215.18,1216.33,265.06,1184.39,325.35Z" transform="translate(-69.21 -25.8)"></path><path class="cls-2" d="M928.75,262C897,296.43,828.38,457,798.33,531.85V257.78C852.2,183.12,923.08,124.52,934,121.69c47.9,7.93,55.9,22.8,55.9,24.69S951.5,207.11,928.75,262Z" transform="translate(-69.21 -25.8)"></path><path class="cls-3" d="M799.75,113.75V523c0,13.7-7.09,19.37-19.85,17l-50.56-11.81c-29.3-9.45-46.78-31.19-46.78-71.35v-413c0-17.39,0-19.84,17-17l32.13,6.62C790.3,47.12,799.75,93.43,799.75,113.75Z" transform="translate(-69.21 -25.8)"></path><path class="cls-4" d="M1045.56,206.27V546.59c0,13.7-7.09,19.37-19.85,17l-50.56-11.81c-29.3-9.46-46.78-31.19-46.78-71.36V136.33c0-8-1.89-17.48,15.12-14.64l35,7.08C1037.05,142.48,1045.56,186,1045.56,206.27Z" transform="translate(-69.21 -25.8)"></path><path class="cls-5" d="M1287.4,272.8V587.89c0,12.66-6.43,18-18.05,15.78l-46-11c-26.66-8.79-42.63-28.92-42.63-66.06V208.07c0-7.47-1.7-16.17,13.8-13.61l31.85,6.52C1279.65,213.74,1287.4,254,1287.4,272.8Z" transform="translate(-69.21 -25.8)"></path></svg> 